<svg id="Layer_2" data-name="Layer 2" xmlns="http://www.w3.org/2000/svg" viewBox="0 0 737.06 260.88"><defs><style>.cls-1{fill:#5028c7;}</style></defs><path class="cls-1" d="M907.94,475.07v1.56c0,3.59-.06,7.18,0,10.77,0,2.07-.76,2.88-2.89,2.93-8.8.2-17.6.71-26.4-.35-11.28-1.37-20.84-14.16-19.32-25.85,1.62-12.24,12.19-21.64,24.33-21.59,12.59,0,22.5,9,23.87,21.74C907.94,468.38,907.79,471,907.94,475.07Z" transform="translate(-171.47 -409.56)"/><path class="cls-1" d="M908.44,584.32c0,5.61.09,11.25,0,16.93-.24,13.38-10.21,23.56-23.17,23.62a23.19,23.19,0,0,1-23.51-23.26c-.21-33.53-.12-67-.06-100.56,0-2-.18-4.71,1.39-6.33,3.57,5.61,9.27,9.84,15.48,10.6,8.8,1.08,17.62.57,26.42.36a1.46,1.46,0,0,0,.36,0c2.52,0,3.18,1.11,3.18,3.75C908.44,534.37,908.5,559.31,908.44,584.32Z" transform="translate(-171.47 -409.56)"/><path class="cls-1" d="M812.14,492.3c-24.17-17.8-50.47-19.52-77.83-7.63-1.93.81-3.44,1.61-5.57-.1-7.53-6-15.78-6.68-24.38-2.33s-11.73,11.68-11.68,21.09c.2,23.72.05,47.44.05,71.16h-.05v70.76a39.82,39.82,0,0,0,.61,7.79c2.43,11.12,13,18.36,24.78,17.29a23.08,23.08,0,0,0,21-22.66c.25-6.92.1-13.8.1-20.68,0-6.17,0-6.17,6-4.35A74.57,74.57,0,0,0,834,584.86,73.53,73.53,0,0,0,812.14,492.3Zm-44.81,87.15a27.82,27.82,0,1,1,28.07-27.62A27.88,27.88,0,0,1,767.33,579.45Z" transform="translate(-171.47 -409.56)"/><path class="cls-1" d="M667.49,529.83c-12.84-43.65-61.7-64.64-104.23-45.06-2.43,1.11-4,1.06-6.22-.61-7.39-5.61-15.38-6.17-23.67-2-8.1,4.09-11.84,10.82-11.84,19.77V647.57a22.53,22.53,0,0,0,22.36,22.86c13.1.26,23.56-9.35,24.07-22.2.15-3.84,0-7.69,0-11.58h0v-9.51c0-6.37,0-6.22,6-4.5,28.22,7.84,53.66,2.38,74.5-18.26S675.84,558.26,667.49,529.83Zm-71.21,49.62a27.82,27.82,0,1,1,28-27.72A28,28,0,0,1,596.28,579.45Z" transform="translate(-171.47 -409.56)"/><path class="cls-1" d="M499.48,551.88c0-16.79,0-33.63-.05-50.42-.1-9.41-4.5-16.44-13.1-20.33-8.45-3.85-16.49-2.38-23.42,3.74-2.07,1.82-3.59,1.77-5.81.66a70,70,0,0,0-19.58-6.38C401,472.73,365.4,494.53,354,530.39c-11.13,34.85,5.67,73.69,38.79,89.42,20.94,9.91,42.08,9.76,63.22.6,2.74-1.21,5.21-2.32,8.1-.15,7.58,5.62,15.62,6.37,24,1.77s11.48-12,11.38-21.34C499.33,584.45,499.43,568.17,499.48,551.88Zm-74.55,28.83a28.07,28.07,0,1,1,28-27.77A27.88,27.88,0,0,1,424.93,580.71Z" transform="translate(-171.47 -409.56)"/><path class="cls-1" d="M217.67,496.73l.15,45.23v5.71c0,17.32-.06,34.58,0,51.87a27.79,27.79,0,0,1-2.71,12.78,22.62,22.62,0,0,1-25.27,12c-10.39-2.52-18.31-12.07-18.31-22.3q-.09-42.42-.06-84.8v-1q0-41.69.06-83.47c0-12.79,11.47-24.23,24.13-23.06a26.28,26.28,0,0,1,13,4.51c5.73,4,8.86,10.44,9,18,.3,14.07.45,28.12-.06,42.2Z" transform="translate(-171.47 -409.56)"/><path class="cls-1" d="M326.74,480.16q0,18.06,0,36.14,0,41.88,0,83.84c0,14.25-9.9,24.67-23.29,24.67-13.15,0-23-10.48-23-24.58-.06-13.36,0-26.75,0-40.11V547.7l.06-50.85V492.8q-.18-29.81-.06-59.58a24.19,24.19,0,0,1,9.33-19,22,22,0,0,1,13.06-4.69A23.61,23.61,0,0,1,326.68,433C326.8,448.7,326.74,464.43,326.74,480.16Z" transform="translate(-171.47 -409.56)"/><path class="cls-1" d="M249.11,550.9c-41.59,0-75.43-44.07-75.43-67.34h42c0,13.73,15.3,25.32,33.41,25.32s33.42-11.59,33.42-25.32h42C324.55,506.91,290.71,550.9,249.11,550.9Z" transform="translate(-171.47 -409.56)"/></svg>